<?xml version="1.0" encoding="UTF-8" ?>
<!DOCTYPE svg PUBLIC "-//W3C//DTD SVG 1.1//EN" "http://www.w3.org/Graphics/SVG/1.1/DTD/svg11.dtd">
<svg width="512pt" height="512pt" viewBox="0 0 512 512" version="1.1" xmlns="http://www.w3.org/2000/svg">
<style>
	@media (prefers-color-scheme: dark) {
				.path { fill: white }
			}
</style>
<g id="#000000ff">
<path class="path" fill="#000000" opacity="1.00" d=" M 255.95 0.00 L 255.97 0.00 C 330.64 42.68 405.33 85.31 479.99 128.01 C 480.01 213.34 480.01 298.66 479.99 383.99 C 405.34 426.69 330.64 469.31 255.99 512.00 L 255.97 512.00 C 209.76 485.56 163.52 459.19 117.34 432.72 C 117.36 347.65 117.31 262.59 117.36 177.53 C 163.56 151.11 209.76 124.69 255.97 98.29 C 302.20 124.68 348.41 151.11 394.64 177.52 C 394.67 229.84 394.67 282.16 394.64 334.48 C 348.41 360.89 302.20 387.31 255.97 413.71 C 238.19 403.54 220.40 393.41 202.66 383.19 C 202.65 331.14 202.65 279.10 202.66 227.06 C 220.41 216.86 238.19 206.72 255.97 196.58 C 270.31 204.74 284.63 212.92 298.94 221.13 C 281.10 231.34 263.26 241.56 245.39 251.73 C 245.30 287.31 245.35 322.90 245.37 358.48 C 248.90 360.51 252.42 362.54 255.97 364.55 C 287.99 346.29 319.99 328.00 351.99 309.71 C 352.01 273.90 352.00 238.08 351.99 202.27 C 320.00 183.96 287.99 165.68 255.97 147.42 C 223.97 165.68 191.98 183.96 160.01 202.26 C 160.00 270.84 159.99 339.41 160.01 407.99 C 191.98 426.29 223.97 444.57 255.97 462.82 C 316.44 428.30 376.91 393.78 437.34 359.18 C 437.34 290.38 437.35 221.58 437.33 152.78 C 376.91 118.20 316.43 83.69 255.97 49.17 C 195.52 83.70 135.07 118.19 74.66 152.78 C 74.64 237.95 74.69 323.11 74.64 408.28 C 60.36 400.31 46.22 392.09 32.01 383.99 C 31.99 298.66 31.99 213.34 32.01 128.02 C 106.64 85.31 181.31 42.70 255.95 0.00 Z" />
</g>
</svg>
